<svg xmlns="http://www.w3.org/2000/svg" width="38.313" height="25.143" viewBox="0 0 38.313 25.143">
  <g id="Western-union" transform="translate(-1370.627 -4890.072)">
    <path id="Shape_327" data-name="Shape 327" d="M1372.292,4890.072h34.982a1.7,1.7,0,0,1,1.666,1.734v21.676a1.7,1.7,0,0,1-1.666,1.733h-34.982a1.7,1.7,0,0,1-1.666-1.733v-21.676A1.7,1.7,0,0,1,1372.292,4890.072Z" fill="#353a40"/>
    <path id="WESTERN_UNION" data-name="WESTERN UNION" d="M1393.315,4906.636a1.47,1.47,0,0,1-.624-.606,2.042,2.042,0,0,1-.24-1.038,1.863,1.863,0,0,1,.474-1.356,1.765,1.765,0,0,1,1.321-.484,1.791,1.791,0,0,1,1.336.477,1.821,1.821,0,0,1,.469,1.335,2.232,2.232,0,0,1-.2,1.022,1.49,1.49,0,0,1-.592.621,1.924,1.924,0,0,1-.967.222A2.175,2.175,0,0,1,1393.315,4906.636Zm.406-2.417a1.631,1.631,0,0,0,0,1.552.726.726,0,0,0,1.068,0,1.332,1.332,0,0,0,.19-.826,1.114,1.114,0,0,0-.2-.734.669.669,0,0,0-.536-.231A.65.65,0,0,0,1393.721,4904.219Zm-9.912,2.574a1.409,1.409,0,0,1-.5-.146,1.232,1.232,0,0,1-.368-.307,1.141,1.141,0,0,1-.229-.409,2.169,2.169,0,0,1-.1-.6v-2.118h1.071v2.168a.625.625,0,0,0,.159.454.669.669,0,0,0,.872,0,.63.63,0,0,0,.158-.457v-2.168h1.071v2.118a1.821,1.821,0,0,1-.1.6,1.278,1.278,0,0,1-.3.489,1.2,1.2,0,0,1-.431.3,2.133,2.133,0,0,1-.751.118A4.773,4.773,0,0,1,1383.81,4906.792Zm15.139-.024-1.3-1.952v1.952h-1.01v-3.555h1l1.309,1.966v-1.966h1.012v3.555Zm-9.978,0-1.3-1.952v1.952h-1.01v-3.555h1l1.308,1.966v-1.966h1.012v3.555Zm1.77-.009v-3.549h1.08v3.549Zm-8.205-4.981a1.387,1.387,0,0,1-.387-.888l1.022-.065a.812.812,0,0,0,.134.388.564.564,0,0,0,.474.217.515.515,0,0,0,.355-.111.322.322,0,0,0,.006-.5,1.366,1.366,0,0,0-.55-.206,2.311,2.311,0,0,1-1.007-.432.875.875,0,0,1-.3-.686.948.948,0,0,1,.155-.517,1.031,1.031,0,0,1,.467-.383,2.132,2.132,0,0,1,.855-.139,1.708,1.708,0,0,1,1.016.254,1.1,1.1,0,0,1,.416.805l-1.012.061a.56.56,0,0,0-.17-.349.536.536,0,0,0-.357-.109.425.425,0,0,0-.282.081.253.253,0,0,0-.095.2.2.2,0,0,0,.079.154.874.874,0,0,0,.361.13,4.465,4.465,0,0,1,1.009.314,1.069,1.069,0,0,1,.443.395,1.014,1.014,0,0,1,.138.525,1.147,1.147,0,0,1-.185.631,1.171,1.171,0,0,1-.517.438,2.064,2.064,0,0,1-.836.149A1.7,1.7,0,0,1,1382.535,4901.778Zm16.414.29-1.3-1.953v1.953h-1.01v-3.555h1l1.309,1.967v-1.967h1.012v3.555Zm-3.875,0-.574-1.087a.849.849,0,0,0-.195-.273.445.445,0,0,0-.264-.083h-.095v1.443h-1.079v-3.555h1.789a2.512,2.512,0,0,1,.761.087.814.814,0,0,1,.425.323,1,1,0,0,1,.161.576,1.017,1.017,0,0,1-.123.511.98.98,0,0,1-.34.347,1.292,1.292,0,0,1-.377.142,1.051,1.051,0,0,1,.28.13,1.069,1.069,0,0,1,.171.188,1.429,1.429,0,0,1,.151.22l.52,1.031Zm-1.127-2.116h.453a1.511,1.511,0,0,0,.284-.048.289.289,0,0,0,.174-.111.335.335,0,0,0,.068-.207.331.331,0,0,0-.107-.265.638.638,0,0,0-.4-.091h-.472Zm-4.6,2.116v-3.555h2.878v.759h-1.8v.565h1.672v.726h-1.672v.7h1.855v.805Zm-2.652,0v-2.677H1385.6v-.878h3.265v.878h-1.1v2.677Zm-7.865,0v-3.555h2.878v.759h-1.8v.565h1.671v.726H1379.9v.7h1.853v.805Zm-2.167,0-.609-2.239-.607,2.239h-1.053l-.773-3.555h1.02l.367,1.99.538-1.99h1.016l.539,1.988.367-1.988h1.015l-.766,3.555Z" fill="#ecd345"/>
    <path id="Shape_338" data-name="Shape 338" d="M1404.75,4906.831v-8.38h1.2v8.38Zm-2.99,0v-8.38h1.2v8.38Z" fill="#ecd345"/>
  </g>
</svg>
