<svg xmlns="http://www.w3.org/2000/svg" width="38.043" height="25.142" viewBox="0 0 38.043 25.142">
  <g id="Paypal" transform="translate(-1461.687 -4890.035)">
    <path id="Shape_327" data-name="Shape 327" d="M1463.342,4890.035h34.735a1.7,1.7,0,0,1,1.654,1.734v21.673a1.7,1.7,0,0,1-1.654,1.734h-34.735a1.7,1.7,0,0,1-1.654-1.734V4891.77A1.7,1.7,0,0,1,1463.342,4890.035Z" fill="#f1f1f1"/>
    <path id="Shape_327_copy" data-name="Shape 327 copy" d="M1462.1,4914.585h0a1.78,1.78,0,0,1-.409-1.141V4891.77a1.7,1.7,0,0,1,1.654-1.735h34.734a1.607,1.607,0,0,1,1.126.464l-37.1,24.086Z" fill="rgba(255,255,255,0.73)"/>
    <path id="Shape_335" data-name="Shape 335" d="M1476.336,4908l1.3-2.35-.724-5.644h1.771l.286,3.34,1.733-3.34h1.828l-4.209,7.994Zm-5.553-4.216c.273-1.374,1.6-1.81,3.562-1.81.117-.611-.272-.764-.934-.741a4.868,4.868,0,0,0-1.694.393l.155-1.373a7.943,7.943,0,0,1,1.985-.349c1.226-.022,2.589.369,2.278,1.962l-.759,3.75h-1.771l.116-.568a2.223,2.223,0,0,1-1.582.676C1471.3,4905.72,1470.553,4905.174,1470.784,4903.78Zm1.811-.087a.5.5,0,0,0,.467.785.91.91,0,0,0,.935-.742,4.2,4.2,0,0,1,.1-.5h-.448A1.2,1.2,0,0,0,1472.594,4903.693Zm-7.911,1.919,1.464-7.172h3.307a1.844,1.844,0,0,1,1.761,2.441,2.75,2.75,0,0,1-2.732,2.355H1467.1l-.475,2.376Zm2.693-3.75h.91a1.232,1.232,0,0,0,1.109-.981.719.719,0,0,0-.653-.98h-.95Z" fill="#3284ae"/>
    <path id="Shape_335-2" data-name="Shape 335" d="M1488,4903.78c.276-1.374,1.617-1.809,3.606-1.809.138-.612-.256-.763-.926-.741a5.225,5.225,0,0,0-1.734.392l.158-1.373a8.513,8.513,0,0,1,2.029-.348c1.241-.022,2.6.369,2.285,1.961l-.768,3.749h-1.773l.118-.566a2.311,2.311,0,0,1-1.618.676C1488.519,4905.72,1487.763,4905.175,1488,4903.78Zm1.833-.087a.509.509,0,0,0,.493.785.9.9,0,0,0,.926-.74c.039-.175.059-.328.1-.5h-.433A1.24,1.24,0,0,0,1489.83,4903.692Zm3.636,1.918,1.466-7.194h1.82l-1.485,7.194Zm-11.569,0,1.462-7.171h3.3a1.849,1.849,0,0,1,1.757,2.44,2.749,2.749,0,0,1-2.745,2.355h-1.363l-.494,2.375Zm2.687-3.749h.888a1.252,1.252,0,0,0,1.127-.981.73.73,0,0,0-.671-.98h-.948Z" fill="#3ca9c7"/>
  </g>
</svg>
