<svg xmlns="http://www.w3.org/2000/svg" width="7.643" height="15.13" viewBox="0 0 7.643 15.13">
  <path id="facebook" d="M126.926,8.058h1.658v6.828a.244.244,0,0,0,.244.244h2.812a.244.244,0,0,0,.244-.244V8.09h1.907a.244.244,0,0,0,.242-.216l.29-2.514a.244.244,0,0,0-.242-.272h-2.2V3.513c0-.475.256-.716.76-.716h1.436a.244.244,0,0,0,.244-.244V.246A.244.244,0,0,0,134.081,0H132.1l-.091,0a3.792,3.792,0,0,0-2.48.935,2.6,2.6,0,0,0-.865,2.311V5.089h-1.741a.244.244,0,0,0-.244.244V7.814A.244.244,0,0,0,126.926,8.058Z" transform="translate(-126.682)" fill="#385c8e"/>
</svg>
