<svg xmlns="http://www.w3.org/2000/svg" width="47.61" height="54.091" viewBox="0 0 47.61 54.091">
  <g id="refund" transform="translate(-11.608)">
    <g id="Group_12" data-name="Group 12" transform="translate(11.608)">
      <g id="Group_11" data-name="Group 11" transform="translate(0)">
        <path id="Path_1" data-name="Path 1" d="M50.017,11.474l-2.609,3.352a19.571,19.571,0,1,1-10.921-4.074L32.815,14.6l2.724,2.6,5.8-6.086v0l2.6-2.727L41.212,5.8h0L35.127,0l-2.6,2.727L36.492,6.5A23.8,23.8,0,0,0,31.714,53.8a24.058,24.058,0,0,0,3.75.295A23.814,23.814,0,0,0,50.017,11.474Z" transform="translate(-11.608)" fill="#ff6875"/>
        <path id="Path_2" data-name="Path 2" d="M78.824,92.819h0V90.374c2.9-.324,5.718-2.154,5.718-5.63,0-4.723-4.392-5.264-7.6-5.659-2.051-.245-3.621-.53-3.621-1.772,0-1.727,2.435-1.914,3.482-1.914a4.726,4.726,0,0,1,3.775,1.663l.164.271,3.222-1.491-.159-.325a6.359,6.359,0,0,0-4.983-3.451V69.913H75.051v2.143c-3.512.518-5.6,2.467-5.6,5.256,0,4.547,4.129,5.009,7.141,5.347,2.685.317,3.934.98,3.934,2.085,0,2.111-2.924,2.276-3.82,2.276-2,0-3.919-1-4.475-2.317l-.138-.326L68.6,85.86l.14.326a7.382,7.382,0,0,0,6.317,4.306v2.327Z" transform="translate(-52.687 -50.397)" fill="#ff6875"/>
      </g>
    </g>
  </g>
</svg>
