<svg xmlns="http://www.w3.org/2000/svg" width="69.723" height="45.573" viewBox="0 0 69.723 45.573">
  <path id="shipping" d="M69.722,96.646c0-.013,0-.026,0-.039a1.6,1.6,0,0,0-1.605-1.57h-.421L61.186,82.453a1.6,1.6,0,0,0-1.427-.862l-11.112,0,.424-3.36a4.566,4.566,0,0,0-4.6-5.056H9.978a1.7,1.7,0,0,0-1.686,1.536l-.346,2.769H27.6a2.239,2.239,0,0,1,2.25,2.31,2.385,2.385,0,0,1-2.371,2.31H20.921l0,.01H1.677A1.686,1.686,0,0,0,0,83.741a1.583,1.583,0,0,0,1.591,1.634H27.073a2.4,2.4,0,0,1,2.034,2.444,2.555,2.555,0,0,1-2.519,2.474H9.02a1.7,1.7,0,0,0-1.693,1.65,1.6,1.6,0,0,0,1.607,1.65H26.294a2.4,2.4,0,0,1,2.069,2.449,2.555,2.555,0,0,1-2.54,2.475H5.906v0H4.233a1.7,1.7,0,0,0-1.693,1.65,1.6,1.6,0,0,0,1.607,1.65H5.59l-.565,5.911a4.566,4.566,0,0,0,4.6,5.056h1.246A7.2,7.2,0,0,0,18,118.746a7.686,7.686,0,0,0,7.436-5.96H40.982a5.268,5.268,0,0,0,3.381-1.268,4.594,4.594,0,0,0,3.22,1.268h.256a7.2,7.2,0,0,0,7.124,5.96,7.686,7.686,0,0,0,7.436-5.96h1.026a5.42,5.42,0,0,0,5.285-4.845L69.716,96.8c0-.015,0-.03,0-.045s0-.045.005-.068S69.722,96.66,69.722,96.646Zm-51.637,18.8a4,4,0,0,1-4.018-4.125,4.264,4.264,0,0,1,4.234-4.126,4,4,0,0,1,4.017,4.126A4.263,4.263,0,0,1,18.085,115.445Zm36.964,0a4,4,0,0,1-4.018-4.125,4.264,4.264,0,0,1,4.234-4.126,4,4,0,0,1,4.017,4.126A4.263,4.263,0,0,1,55.049,115.445Zm10.373-7.716a1.987,1.987,0,0,1-1.911,1.756H62.4a7.2,7.2,0,0,0-7.05-5.591,7.687,7.687,0,0,0-7.342,5.591h-.34a1.4,1.4,0,0,1-1.054-.443,1.42,1.42,0,0,1-.348-1.1l2.081-23.052h4.779l-.757,8.392a4.566,4.566,0,0,0,4.6,5.056h9.3Z" transform="translate(0 -73.172)" fill="#ff6875"/>
</svg>
