<svg xmlns="http://www.w3.org/2000/svg" width="15.902" height="16" viewBox="0 0 15.902 16">
  <path id="bag_3" d="M303.438,516.676a1.982,1.982,0,0,0-1.49-.676h-.218l-.806-3.243a.993.993,0,0,0-.963-.757H292.01a1,1,0,0,0-.965.757L290.24,516h-.218a1.982,1.982,0,0,0-1.49.676,2.009,2.009,0,0,0-.482,1.572l.993,8A1.993,1.993,0,0,0,291.016,528h9.938a1.993,1.993,0,0,0,1.973-1.752l.994-8a2.01,2.01,0,0,0-.483-1.572ZM292.786,514h6.4l.5,2h-7.393Zm-1.77,12-.994-8h11.926l-.994,8h-9.938ZM294,520a1,1,0,0,0-.993,1v2a.994.994,0,1,0,1.987,0v-2A1,1,0,0,0,294,520Zm3.976,0a1,1,0,0,0-.994,1v2a.994.994,0,1,0,1.988,0v-2a1,1,0,0,0-1-1Z" transform="translate(-288.035 -512)" fill="#22262a" fill-rule="evenodd"/>
</svg>
