<svg xmlns="http://www.w3.org/2000/svg" width="46.826" height="61.474" viewBox="0 0 46.826 61.474">
  <g id="support" transform="translate(0)">
    <path id="Path_3" data-name="Path 3" d="M0,365.4V378.25H46.826V365.4a5.409,5.409,0,0,0-5.4-5.4H5.4A5.409,5.409,0,0,0,0,365.4Zm3.6,0a1.8,1.8,0,0,1,1.8-1.8H7.2v11.046H3.6Zm7.2-1.8h4.657l7.95,7.95,7.95-7.95H36.02v11.046H10.806Zm32.418,1.8v9.245h-3.6V363.6h1.8A1.8,1.8,0,0,1,43.224,365.4Zm-16.955-1.8-2.856,2.856L20.557,363.6Zm0,0" transform="translate(0 -316.776)" fill="#ff6875"/>
    <path id="Path_4" data-name="Path 4" d="M36.883,36.02h2.738v-3.6h1.8a5.409,5.409,0,0,0,5.4-5.4v-3.6A23.413,23.413,0,0,0,0,23.413v3.6a5.409,5.409,0,0,0,5.4,5.4H8.131a16.2,16.2,0,0,0,28.752,3.6Zm4.539-7.2h-1.9a16.2,16.2,0,0,0,.1-1.8v-3.6a16.2,16.2,0,0,0-.1-1.8h1.9a1.8,1.8,0,0,1,1.8,1.8v3.6A1.8,1.8,0,0,1,41.422,28.816ZM23.413,3.6A19.846,19.846,0,0,1,42.5,18.119a5.405,5.405,0,0,0-1.082-.109H38.694a16.209,16.209,0,0,0-30.563,0H5.4a5.405,5.405,0,0,0-1.082.109A19.846,19.846,0,0,1,23.413,3.6ZM33.755,16.213a12.658,12.658,0,0,1-10.343,5.4H10.935a12.6,12.6,0,0,1,22.821-5.4ZM5.4,28.816a1.8,1.8,0,0,1-1.8-1.8v-3.6a1.8,1.8,0,0,1,1.8-1.8H7.3a16.2,16.2,0,0,0-.1,1.8v3.6a16.2,16.2,0,0,0,.1,1.8Zm5.4-1.8v-1.8H23.413a16.27,16.27,0,0,0,12.08-5.407,12.549,12.549,0,0,1,.527,3.606v3.6a12.533,12.533,0,0,1-1.218,5.4H28.815l-1.582-1.582a5.4,5.4,0,0,1-7.641,0l-2.547,2.547a9.005,9.005,0,0,0,11.77.837v1.8h3.41a12.6,12.6,0,0,1-21.42-9Zm0,0" fill="#ff6875"/>
  </g>
</svg>
