<svg xmlns="http://www.w3.org/2000/svg" width="16.013" height="16" viewBox="0 0 16.013 16">
  <path id="profile_close_2" d="M431.9,365.343a8.086,8.086,0,0,0-4.44-4.613,4.881,4.881,0,0,0,1.783-3.73,5.062,5.062,0,0,0-4.619-4.962,5,5,0,0,0-1.23,0A5.062,5.062,0,0,0,418.779,357a4.878,4.878,0,0,0,1.783,3.73,8.085,8.085,0,0,0-4.441,4.613,1.93,1.93,0,0,0,.271,1.816A2.125,2.125,0,0,0,418.1,368h11.829a2.122,2.122,0,0,0,1.706-.841,1.924,1.924,0,0,0,.265-1.816ZM420.872,357a3.044,3.044,0,0,1,2.816-2.98,2.642,2.642,0,0,1,.649,0,3.009,3.009,0,1,1-3.465,2.98Zm-2.774,9a6.373,6.373,0,0,1,11.829,0H418.1Z" transform="translate(-416.005 -352)" fill="#22262a" fill-rule="evenodd"/>
</svg>
